<mxfile host="Electron" agent="Mozilla/5.0 (Windows NT 10.0; Win64; x64) AppleWebKit/537.36 (KHTML, like Gecko) draw.io/28.2.5 Chrome/138.0.7204.251 Electron/37.6.1 Safari/537.36" version="28.2.5">
  <diagram name="PÃ¡gina-1" id="MuhLdXpGq2lwXoi172K8">
    <mxGraphModel dx="1018" dy="1033" grid="1" gridSize="10" guides="1" tooltips="1" connect="1" arrows="1" fold="1" page="1" pageScale="1" pageWidth="1200" pageHeight="1920" math="0" shadow="0">
      <root>
        <mxCell id="0" />
        <mxCell id="1" parent="0" />
        <mxCell id="PlNiTmH3JLNKNIb5EKd6-1" value="" style="rounded=0;whiteSpace=wrap;html=1;fillColor=none;dashed=1;strokeColor=#8F8F8F;" vertex="1" parent="1">
          <mxGeometry x="50" y="150" width="120" height="450" as="geometry" />
        </mxCell>
        <mxCell id="PlNiTmH3JLNKNIb5EKd6-2" value="&lt;font style=&quot;font-size: 24px;&quot;&gt;Sources&lt;/font&gt;" style="rounded=0;whiteSpace=wrap;html=1;strokeColor=none;fillColor=none;" vertex="1" parent="1">
          <mxGeometry x="60" y="110" width="100" height="50" as="geometry" />
        </mxCell>
        <mxCell id="PlNiTmH3JLNKNIb5EKd6-3" value="" style="rounded=0;whiteSpace=wrap;html=1;fillColor=none;dashed=1;strokeColor=#8F8F8F;" vertex="1" parent="1">
          <mxGeometry x="240" y="150" width="630" height="450" as="geometry" />
        </mxCell>
        <mxCell id="PlNiTmH3JLNKNIb5EKd6-4" value="&lt;font style=&quot;font-size: 24px;&quot;&gt;Data Warehouse&lt;/font&gt;" style="rounded=0;whiteSpace=wrap;html=1;strokeColor=none;fillColor=none;" vertex="1" parent="1">
          <mxGeometry x="440" y="110" width="230" height="50" as="geometry" />
        </mxCell>
        <mxCell id="PlNiTmH3JLNKNIb5EKd6-5" value="" style="rounded=0;whiteSpace=wrap;html=1;fillColor=none;dashed=1;strokeColor=#8F8F8F;" vertex="1" parent="1">
          <mxGeometry x="960" y="150" width="120" height="450" as="geometry" />
        </mxCell>
        <mxCell id="PlNiTmH3JLNKNIb5EKd6-6" value="&lt;font style=&quot;font-size: 24px;&quot;&gt;Consume&lt;/font&gt;" style="rounded=0;whiteSpace=wrap;html=1;strokeColor=none;fillColor=none;" vertex="1" parent="1">
          <mxGeometry x="950" y="100" width="100" height="50" as="geometry" />
        </mxCell>
        <mxCell id="PlNiTmH3JLNKNIb5EKd6-7" value="&lt;font style=&quot;color: rgb(0, 0, 0); font-size: 15px;&quot;&gt;Bronze Layer&lt;/font&gt;" style="rounded=0;whiteSpace=wrap;html=1;fillColor=#fad7ac;strokeColor=#b46504;" vertex="1" parent="1">
          <mxGeometry x="280" y="170" width="120" height="30" as="geometry" />
        </mxCell>
        <mxCell id="PlNiTmH3JLNKNIb5EKd6-8" value="" style="rounded=0;whiteSpace=wrap;html=1;fillColor=none;strokeColor=#b46504;" vertex="1" parent="1">
          <mxGeometry x="280" y="210" width="120" height="370" as="geometry" />
        </mxCell>
        <mxCell id="PlNiTmH3JLNKNIb5EKd6-10" value="&lt;font style=&quot;color: rgb(0, 0, 0); font-size: 15px;&quot;&gt;Silver Layer&lt;/font&gt;" style="rounded=0;whiteSpace=wrap;html=1;fillColor=#f5f5f5;strokeColor=#666666;gradientColor=#b3b3b3;" vertex="1" parent="1">
          <mxGeometry x="500" y="170" width="120" height="30" as="geometry" />
        </mxCell>
        <mxCell id="PlNiTmH3JLNKNIb5EKd6-11" value="" style="rounded=0;whiteSpace=wrap;html=1;fillColor=none;strokeColor=#666666;gradientColor=#b3b3b3;" vertex="1" parent="1">
          <mxGeometry x="500" y="210" width="120" height="370" as="geometry" />
        </mxCell>
        <mxCell id="PlNiTmH3JLNKNIb5EKd6-12" value="&lt;font style=&quot;color: rgb(0, 0, 0); font-size: 15px;&quot;&gt;Gold Layer&lt;/font&gt;" style="rounded=0;whiteSpace=wrap;html=1;fillColor=#ffcd28;strokeColor=#d79b00;gradientColor=#ffa500;" vertex="1" parent="1">
          <mxGeometry x="720" y="170" width="120" height="30" as="geometry" />
        </mxCell>
        <mxCell id="PlNiTmH3JLNKNIb5EKd6-13" value="" style="rounded=0;whiteSpace=wrap;html=1;fillColor=none;strokeColor=#d79b00;gradientColor=#ffa500;" vertex="1" parent="1">
          <mxGeometry x="720" y="210" width="120" height="370" as="geometry" />
        </mxCell>
        <mxCell id="PlNiTmH3JLNKNIb5EKd6-14" value="CRM" style="image;aspect=fixed;html=1;points=[];align=center;fontSize=12;image=img/lib/azure2/general/Folder_Blank.svg;" vertex="1" parent="1">
          <mxGeometry x="76" y="270" width="56.68" height="46" as="geometry" />
        </mxCell>
        <mxCell id="PlNiTmH3JLNKNIb5EKd6-15" value="" style="image;aspect=fixed;html=1;points=[];align=center;fontSize=12;image=img/lib/azure2/general/File.svg;" vertex="1" parent="1">
          <mxGeometry x="120" y="290" width="31.65" height="39" as="geometry" />
        </mxCell>
        <mxCell id="PlNiTmH3JLNKNIb5EKd6-17" value="ERP" style="image;aspect=fixed;html=1;points=[];align=center;fontSize=12;image=img/lib/azure2/general/Folder_Blank.svg;" vertex="1" parent="1">
          <mxGeometry x="76" y="365.5" width="56.68" height="46" as="geometry" />
        </mxCell>
        <mxCell id="PlNiTmH3JLNKNIb5EKd6-18" value="" style="image;aspect=fixed;html=1;points=[];align=center;fontSize=12;image=img/lib/azure2/general/File.svg;" vertex="1" parent="1">
          <mxGeometry x="120" y="385.5" width="31.65" height="39" as="geometry" />
        </mxCell>
        <mxCell id="PlNiTmH3JLNKNIb5EKd6-19" value="" style="endArrow=none;html=1;rounded=0;exitX=0.833;exitY=0.644;exitDx=0;exitDy=0;exitPerimeter=0;entryX=0.167;entryY=0.644;entryDx=0;entryDy=0;entryPerimeter=0;dashed=1;fillColor=#f5f5f5;gradientColor=#b3b3b3;strokeColor=#666666;" edge="1" parent="1" source="PlNiTmH3JLNKNIb5EKd6-1" target="PlNiTmH3JLNKNIb5EKd6-1">
          <mxGeometry width="50" height="50" relative="1" as="geometry">
            <mxPoint x="98.35" y="468.63745498199273" as="sourcePoint" />
            <mxPoint x="79.99999999999997" y="440" as="targetPoint" />
          </mxGeometry>
        </mxCell>
        <mxCell id="PlNiTmH3JLNKNIb5EKd6-20" value="&lt;font style=&quot;font-size: 8px;&quot;&gt;&lt;b&gt;Objetc Type:&lt;/b&gt; CSV File&lt;/font&gt;&lt;div&gt;&lt;font style=&quot;font-size: 8px;&quot;&gt;&lt;b&gt;Interface:&lt;/b&gt; Files in Folder&lt;/font&gt;&lt;/div&gt;" style="rounded=0;whiteSpace=wrap;html=1;fillColor=none;strokeColor=none;" vertex="1" parent="1">
          <mxGeometry x="55" y="450" width="110" height="30" as="geometry" />
        </mxCell>
        <mxCell id="PlNiTmH3JLNKNIb5EKd6-21" value="" style="html=1;verticalLabelPosition=bottom;align=center;labelBackgroundColor=#ffffff;verticalAlign=top;strokeWidth=2;strokeColor=#b46504;shadow=0;dashed=0;shape=mxgraph.ios7.icons.data;fillColor=#fad7ac;" vertex="1" parent="1">
          <mxGeometry x="323" y="316" width="24" height="29.099999999999998" as="geometry" />
        </mxCell>
        <mxCell id="PlNiTmH3JLNKNIb5EKd6-22" value="" style="html=1;verticalLabelPosition=bottom;align=center;labelBackgroundColor=#ffffff;verticalAlign=top;strokeWidth=2;strokeColor=#666666;shadow=0;dashed=0;shape=mxgraph.ios7.icons.data;fillColor=#f5f5f5;gradientColor=#b3b3b3;" vertex="1" parent="1">
          <mxGeometry x="548" y="316" width="24" height="29.099999999999998" as="geometry" />
        </mxCell>
        <mxCell id="PlNiTmH3JLNKNIb5EKd6-23" value="" style="html=1;verticalLabelPosition=bottom;align=center;labelBackgroundColor=#ffffff;verticalAlign=top;strokeWidth=2;strokeColor=#d79b00;shadow=0;dashed=0;shape=mxgraph.ios7.icons.data;fillColor=#ffcd28;gradientColor=#ffa500;" vertex="1" parent="1">
          <mxGeometry x="768" y="316" width="24" height="29.099999999999998" as="geometry" />
        </mxCell>
        <mxCell id="PlNiTmH3JLNKNIb5EKd6-25" value="" style="html=1;shadow=0;dashed=0;align=center;verticalAlign=middle;shape=mxgraph.arrows2.sharpArrow;dy1=0.67;dx1=18;dx2=18;notch=0;" vertex="1" parent="1">
          <mxGeometry x="170" y="332.75" width="70" height="45.5" as="geometry" />
        </mxCell>
        <mxCell id="PlNiTmH3JLNKNIb5EKd6-26" value="" style="html=1;shadow=0;dashed=0;align=center;verticalAlign=middle;shape=mxgraph.arrows2.sharpArrow;dy1=0.68;dx1=18;dx2=18;notch=0;" vertex="1" parent="1">
          <mxGeometry x="420" y="330.5" width="60" height="50" as="geometry" />
        </mxCell>
        <mxCell id="PlNiTmH3JLNKNIb5EKd6-27" value="" style="html=1;shadow=0;dashed=0;align=center;verticalAlign=middle;shape=mxgraph.arrows2.sharpArrow;dy1=0.68;dx1=18;dx2=18;notch=0;" vertex="1" parent="1">
          <mxGeometry x="640" y="330.5" width="60" height="50" as="geometry" />
        </mxCell>
        <mxCell id="PlNiTmH3JLNKNIb5EKd6-28" value="" style="html=1;shadow=0;dashed=0;align=center;verticalAlign=middle;shape=mxgraph.arrows2.sharpArrow;dy1=0.68;dx1=18;dx2=18;notch=0;" vertex="1" parent="1">
          <mxGeometry x="870" y="335.5" width="80" height="50" as="geometry" />
        </mxCell>
        <mxCell id="PlNiTmH3JLNKNIb5EKd6-29" value="Raw Data" style="text;html=1;align=center;verticalAlign=middle;whiteSpace=wrap;rounded=0;" vertex="1" parent="1">
          <mxGeometry x="305" y="366.5" width="70" height="30" as="geometry" />
        </mxCell>
        <mxCell id="PlNiTmH3JLNKNIb5EKd6-30" value="Cleaned, Standarized&amp;nbsp; Data" style="text;html=1;align=center;verticalAlign=middle;whiteSpace=wrap;rounded=0;" vertex="1" parent="1">
          <mxGeometry x="504" y="366.5" width="112" height="30" as="geometry" />
        </mxCell>
        <mxCell id="PlNiTmH3JLNKNIb5EKd6-31" value="Business-Ready Data" style="text;html=1;align=center;verticalAlign=middle;whiteSpace=wrap;rounded=0;" vertex="1" parent="1">
          <mxGeometry x="727.5" y="366.5" width="105" height="30" as="geometry" />
        </mxCell>
        <mxCell id="PlNiTmH3JLNKNIb5EKd6-32" value="" style="endArrow=none;html=1;rounded=0;exitX=0.833;exitY=0.644;exitDx=0;exitDy=0;exitPerimeter=0;entryX=0.167;entryY=0.644;entryDx=0;entryDy=0;entryPerimeter=0;dashed=1;fillColor=#f5f5f5;gradientColor=#b3b3b3;strokeColor=#666666;" edge="1" parent="1">
          <mxGeometry width="50" height="50" relative="1" as="geometry">
            <mxPoint x="380" y="405.75" as="sourcePoint" />
            <mxPoint x="300" y="405.75" as="targetPoint" />
          </mxGeometry>
        </mxCell>
        <mxCell id="PlNiTmH3JLNKNIb5EKd6-33" value="&lt;font style=&quot;font-size: 8px;&quot;&gt;&lt;b&gt;Objetc Type:&lt;/b&gt; Table&lt;/font&gt;&lt;div&gt;&lt;font style=&quot;font-size: 8px;&quot;&gt;&lt;b&gt;Load:&lt;/b&gt;&amp;nbsp;&lt;/font&gt;&lt;/div&gt;&lt;div&gt;&lt;span style=&quot;font-size: 8px; background-color: transparent; color: light-dark(rgb(0, 0, 0), rgb(255, 255, 255));&quot;&gt;- Batch Processing&lt;/span&gt;&lt;/div&gt;&lt;div&gt;&lt;span style=&quot;font-size: 8px; background-color: transparent; color: light-dark(rgb(0, 0, 0), rgb(255, 255, 255));&quot;&gt;- Full Load (Trunc &amp;amp; insert)&lt;/span&gt;&lt;/div&gt;&lt;div&gt;&lt;span style=&quot;font-size: 8px; background-color: transparent; color: light-dark(rgb(0, 0, 0), rgb(255, 255, 255));&quot;&gt;&lt;b&gt;No Transformations&lt;/b&gt;&lt;/span&gt;&lt;/div&gt;&lt;div&gt;&lt;span style=&quot;font-size: 8px; background-color: transparent; color: light-dark(rgb(0, 0, 0), rgb(255, 255, 255));&quot;&gt;&lt;b&gt;Data Model:&lt;/b&gt; None (as - is)&lt;/span&gt;&lt;/div&gt;" style="rounded=0;whiteSpace=wrap;html=1;fillColor=none;strokeColor=none;align=left;" vertex="1" parent="1">
          <mxGeometry x="285" y="415.75" width="110" height="108.5" as="geometry" />
        </mxCell>
        <mxCell id="PlNiTmH3JLNKNIb5EKd6-39" value="" style="endArrow=none;html=1;rounded=0;exitX=0.833;exitY=0.644;exitDx=0;exitDy=0;exitPerimeter=0;entryX=0.167;entryY=0.644;entryDx=0;entryDy=0;entryPerimeter=0;dashed=1;fillColor=#f5f5f5;gradientColor=#b3b3b3;strokeColor=#666666;" edge="1" parent="1">
          <mxGeometry width="50" height="50" relative="1" as="geometry">
            <mxPoint x="600" y="411.5" as="sourcePoint" />
            <mxPoint x="520" y="411.5" as="targetPoint" />
          </mxGeometry>
        </mxCell>
        <mxCell id="PlNiTmH3JLNKNIb5EKd6-40" value="&lt;font style=&quot;font-size: 8px;&quot;&gt;&lt;b&gt;Objetc Type:&lt;/b&gt; Tables&lt;/font&gt;&lt;div&gt;&lt;font style=&quot;font-size: 8px;&quot;&gt;&lt;b&gt;Load:&lt;/b&gt;&amp;nbsp;&lt;/font&gt;&lt;/div&gt;&lt;div&gt;&lt;span style=&quot;font-size: 8px; background-color: transparent; color: light-dark(rgb(0, 0, 0), rgb(255, 255, 255));&quot;&gt;- Batch Processing&lt;/span&gt;&lt;/div&gt;&lt;div&gt;&lt;span style=&quot;font-size: 8px; background-color: transparent; color: light-dark(rgb(0, 0, 0), rgb(255, 255, 255));&quot;&gt;- Full Load (Trunc &amp;amp; insert)&lt;/span&gt;&lt;/div&gt;&lt;div&gt;&lt;span style=&quot;font-size: 8px; background-color: transparent; color: light-dark(rgb(0, 0, 0), rgb(255, 255, 255));&quot;&gt;&lt;b&gt;Transformations:&lt;/b&gt;&lt;/span&gt;&lt;/div&gt;&lt;div&gt;&lt;span style=&quot;font-size: 8px; background-color: transparent; color: light-dark(rgb(0, 0, 0), rgb(255, 255, 255));&quot;&gt;-Data Cleansing&lt;/span&gt;&lt;/div&gt;&lt;div&gt;&lt;span style=&quot;font-size: 8px; background-color: transparent; color: light-dark(rgb(0, 0, 0), rgb(255, 255, 255));&quot;&gt;-Data Standarization&lt;/span&gt;&lt;/div&gt;&lt;div&gt;&lt;span style=&quot;font-size: 8px; background-color: transparent; color: light-dark(rgb(0, 0, 0), rgb(255, 255, 255));&quot;&gt;-Data normalization&lt;/span&gt;&lt;/div&gt;&lt;div&gt;&lt;span style=&quot;font-size: 8px; background-color: transparent; color: light-dark(rgb(0, 0, 0), rgb(255, 255, 255));&quot;&gt;-Derived Columns&lt;/span&gt;&lt;/div&gt;&lt;div&gt;&lt;span style=&quot;font-size: 8px; background-color: transparent; color: light-dark(rgb(0, 0, 0), rgb(255, 255, 255));&quot;&gt;-Data Enrichment&lt;/span&gt;&lt;/div&gt;&lt;div&gt;&lt;span style=&quot;font-size: 8px; background-color: transparent; color: light-dark(rgb(0, 0, 0), rgb(255, 255, 255));&quot;&gt;&lt;b&gt;Data Model:&lt;/b&gt; None (as - is)&lt;/span&gt;&lt;/div&gt;" style="rounded=0;whiteSpace=wrap;html=1;fillColor=none;strokeColor=none;align=left;" vertex="1" parent="1">
          <mxGeometry x="505" y="415.75" width="110" height="158.5" as="geometry" />
        </mxCell>
        <mxCell id="PlNiTmH3JLNKNIb5EKd6-41" value="" style="endArrow=none;html=1;rounded=0;exitX=0.833;exitY=0.644;exitDx=0;exitDy=0;exitPerimeter=0;entryX=0.167;entryY=0.644;entryDx=0;entryDy=0;entryPerimeter=0;dashed=1;fillColor=#f5f5f5;gradientColor=#b3b3b3;strokeColor=#666666;" edge="1" parent="1">
          <mxGeometry width="50" height="50" relative="1" as="geometry">
            <mxPoint x="820" y="411.5" as="sourcePoint" />
            <mxPoint x="740" y="411.5" as="targetPoint" />
          </mxGeometry>
        </mxCell>
        <mxCell id="PlNiTmH3JLNKNIb5EKd6-42" value="&lt;font style=&quot;font-size: 8px;&quot;&gt;&lt;b&gt;Objetc Type:&lt;/b&gt;&amp;nbsp;Views&lt;/font&gt;&lt;div&gt;&lt;font style=&quot;font-size: 8px;&quot;&gt;&lt;b&gt;No Load&lt;/b&gt;&lt;/font&gt;&lt;/div&gt;&lt;div&gt;&lt;span style=&quot;font-size: 8px; background-color: transparent; color: light-dark(rgb(0, 0, 0), rgb(255, 255, 255));&quot;&gt;&lt;b&gt;Transformations:&lt;/b&gt;&lt;/span&gt;&lt;/div&gt;&lt;div&gt;&lt;span style=&quot;font-size: 8px; background-color: transparent; color: light-dark(rgb(0, 0, 0), rgb(255, 255, 255));&quot;&gt;-Data Aggregations&lt;/span&gt;&lt;/div&gt;&lt;div&gt;&lt;span style=&quot;font-size: 8px; background-color: transparent; color: light-dark(rgb(0, 0, 0), rgb(255, 255, 255));&quot;&gt;-Data integrations&lt;/span&gt;&lt;/div&gt;&lt;div&gt;&lt;span style=&quot;font-size: 8px; background-color: transparent; color: light-dark(rgb(0, 0, 0), rgb(255, 255, 255));&quot;&gt;-Business Logics&lt;/span&gt;&lt;/div&gt;&lt;div&gt;&lt;span style=&quot;font-size: 8px; background-color: transparent; color: light-dark(rgb(0, 0, 0), rgb(255, 255, 255));&quot;&gt;&lt;b&gt;Data Model:&lt;/b&gt;&lt;/span&gt;&lt;/div&gt;&lt;div&gt;&lt;span style=&quot;font-size: 8px; background-color: transparent; color: light-dark(rgb(0, 0, 0), rgb(255, 255, 255));&quot;&gt;-Star Schema&lt;/span&gt;&lt;/div&gt;&lt;div&gt;&lt;span style=&quot;font-size: 8px; background-color: transparent; color: light-dark(rgb(0, 0, 0), rgb(255, 255, 255));&quot;&gt;-Flat Table&lt;/span&gt;&lt;/div&gt;&lt;div&gt;&lt;span style=&quot;font-size: 8px; background-color: transparent; color: light-dark(rgb(0, 0, 0), rgb(255, 255, 255));&quot;&gt;-Aggregated Table&lt;/span&gt;&lt;/div&gt;" style="rounded=0;whiteSpace=wrap;html=1;fillColor=none;strokeColor=none;align=left;" vertex="1" parent="1">
          <mxGeometry x="725" y="415.75" width="110" height="158.5" as="geometry" />
        </mxCell>
        <mxCell id="PlNiTmH3JLNKNIb5EKd6-43" value="" style="image;aspect=fixed;html=1;points=[];align=center;fontSize=12;image=img/lib/azure2/analytics/Power_BI_Embedded.svg;" vertex="1" parent="1">
          <mxGeometry x="969.12" y="210" width="43.5" height="58" as="geometry" />
        </mxCell>
        <mxCell id="PlNiTmH3JLNKNIb5EKd6-44" value="" style="verticalLabelPosition=bottom;shadow=0;dashed=0;align=center;html=1;verticalAlign=top;strokeWidth=1;shape=mxgraph.mockup.graphics.lineChart;strokeColor=none;strokeColor2=#666666;strokeColor3=#008cff;strokeColor4=#dddddd;" vertex="1" parent="1">
          <mxGeometry x="1010.87" y="238" width="60" height="30" as="geometry" />
        </mxCell>
        <mxCell id="PlNiTmH3JLNKNIb5EKd6-46" value="" style="sketch=0;pointerEvents=1;shadow=0;dashed=0;html=1;strokeColor=none;fillColor=#005F4B;labelPosition=center;verticalLabelPosition=bottom;verticalAlign=top;align=center;outlineConnect=0;shape=mxgraph.veeam2.magnifying_glass;" vertex="1" parent="1">
          <mxGeometry x="993" y="335.5" width="54" height="47" as="geometry" />
        </mxCell>
        <mxCell id="PlNiTmH3JLNKNIb5EKd6-47" value="" style="sketch=0;outlineConnect=0;fontColor=#232F3E;gradientColor=none;fillColor=#7AA116;strokeColor=none;dashed=0;verticalLabelPosition=bottom;verticalAlign=top;align=center;html=1;fontSize=12;fontStyle=0;aspect=fixed;pointerEvents=1;shape=mxgraph.aws4.iot_greengrass_component_machine_learning;" vertex="1" parent="1">
          <mxGeometry x="981" y="440" width="78" height="78" as="geometry" />
        </mxCell>
        <mxCell id="PlNiTmH3JLNKNIb5EKd6-48" value="BI &amp;amp; Reporting" style="text;html=1;align=center;verticalAlign=middle;whiteSpace=wrap;rounded=0;" vertex="1" parent="1">
          <mxGeometry x="976" y="278" width="83" height="30" as="geometry" />
        </mxCell>
        <mxCell id="PlNiTmH3JLNKNIb5EKd6-49" value="Ad-Hoc" style="text;html=1;align=center;verticalAlign=middle;whiteSpace=wrap;rounded=0;" vertex="1" parent="1">
          <mxGeometry x="978.5" y="390" width="83" height="30" as="geometry" />
        </mxCell>
        <mxCell id="PlNiTmH3JLNKNIb5EKd6-50" value="Machine Learning" style="text;html=1;align=center;verticalAlign=middle;whiteSpace=wrap;rounded=0;" vertex="1" parent="1">
          <mxGeometry x="978.5" y="524.25" width="83" height="30" as="geometry" />
        </mxCell>
        <mxCell id="PlNiTmH3JLNKNIb5EKd6-52" value="&lt;b&gt;&lt;font style=&quot;font-size: 30px;&quot;&gt;MEDALLION DATA WAREHOUSE PROJECT&lt;/font&gt;&lt;/b&gt;&lt;div&gt;&lt;b&gt;&lt;font size=&quot;1&quot; style=&quot;color: rgb(57, 255, 35);&quot;&gt;Using SQL Server Managment&lt;/font&gt;&lt;/b&gt;&lt;/div&gt;" style="text;html=1;align=center;verticalAlign=middle;whiteSpace=wrap;rounded=0;" vertex="1" parent="1">
          <mxGeometry x="323" y="30" width="464" height="60" as="geometry" />
        </mxCell>
      </root>
    </mxGraphModel>
  </diagram>
</mxfile>
